<?xml version="1.0" encoding="UTF-8" standalone="no"?>
<svg
   xmlns:dc="http://purl.org/dc/elements/1.1/"
   xmlns:cc="http://creativecommons.org/ns#"
   xmlns:rdf="http://www.w3.org/1999/02/22-rdf-syntax-ns#"
   xmlns:svg="http://www.w3.org/2000/svg"
   xmlns="http://www.w3.org/2000/svg"
   xmlns:sodipodi="http://sodipodi.sourceforge.net/DTD/sodipodi-0.dtd"
   xmlns:inkscape="http://www.inkscape.org/namespaces/inkscape"
   version="1"
   width="16"
   height="16"
   viewBox="0 0 12.000075 12"
   id="svg12"
   sodipodi:docname="icon-niconico.svg"
   inkscape:version="0.92.1 r">
  <metadata
     id="metadata18">
    <rdf:RDF>
      <cc:Work
         rdf:about="">
        <dc:format>image/svg+xml</dc:format>
        <dc:type
           rdf:resource="http://purl.org/dc/dcmitype/StillImage" />
        <dc:title />
      </cc:Work>
    </rdf:RDF>
  </metadata>
  <defs
     id="defs16" />
  <sodipodi:namedview
     pagecolor="#ffffff"
     bordercolor="#666666"
     borderopacity="1"
     objecttolerance="10"
     gridtolerance="10"
     guidetolerance="10"
     inkscape:pageopacity="0"
     inkscape:pageshadow="2"
     inkscape:window-width="1366"
     inkscape:window-height="719"
     id="namedview14"
     showgrid="false"
     inkscape:pagecheckerboard="false"
     inkscape:zoom="16.857143"
     inkscape:cx="-7.0900776"
     inkscape:cy="9.6279018"
     inkscape:window-x="0"
     inkscape:window-y="26"
     inkscape:window-maximized="1"
     inkscape:current-layer="svg12" />
  <path
     d="m 0,-29.500188 v -0.5 h 10 v 1 H 9.5 q -0.5,0 -0.5,0.5 v 0.5 H 8.5 q -0.5,0 -0.5,0.5 0,0.5 0.5,0.5 H 9 v 0.5 q 0,0.5 0.5,0.5 H 10 v 0.5 q 0,0.5 0.5,0.5 H 11 v 0.5 q 0,0.5 0.5,0.5 H 12 v 0.5 q 0,0.5 0.5,0.5 H 13 v 0.5 q 0,0.5 0.5,0.5 H 14 v 1 H 2.5 q -0.5,0 -0.5,0.5 v 0.5 H 0 v -9.5 m 12,0 v -0.5 h 15 v 2 h -0.5 q -0.5,0 -0.5,0.5 v 0.5 h -0.5 q -0.5,0 -0.5,0.5 v 0.5 h -0.5 q -0.5,0 -0.5,0.5 v 0.5 h -0.5 q -0.5,0 -0.5,0.5 v 0.5 h -0.5 q -0.5,0 -0.5,0.5 v 0.5 h -0.5 q -0.5,0 -0.5,0.5 v 0.5 h -2 v -0.5 q 0,-0.5 -0.5,-0.5 H 18 v -0.5 q 0,-0.5 -0.5,-0.5 H 17 v -0.5 q 0,-0.5 -0.5,-0.5 H 16 v -0.5 q 0,-0.5 -0.5,-0.5 H 15 v -0.5 q 0,-0.5 -0.5,-0.5 H 14 v -0.5 q 0,-0.5 -0.5,-0.5 H 13 v -0.5 q 0,-0.5 -0.5,-0.5 H 12 v -0.5 m 18,0 v -0.5 h 10 v 10 h -2 v -0.5 q 0,-0.5 -0.5,-0.5 H 25 v -1 h 1.5 q 0.5,0 0.5,-0.5 v -0.5 h 0.5 q 0.5,0 0.5,-0.5 v -0.5 h 0.5 q 0.5,0 0.5,-0.5 v -0.5 h 0.5 q 0.5,0 0.5,-0.5 v -0.5 h 0.5 q 0.5,0 0.5,-0.5 v -2 q 0,-0.5 -0.5,-0.5 H 30 v -0.5"
     id="path2"
     inkscape:connector-curvature="0"
     style="fill:none" />
  <path
     d="m 8.4000525,0.00815848 0.4500028,0.45538777 -1.919412,2.11846425 4.1694257,0.00668 c 0.900006,0 0.900006,0 0.900006,0.9107755 v 6.3754287 c 0,0.9107753 -0.222001,0.7963213 -0.508803,0.9411343 -0.429903,0.04797 -1.110607,0.0167 -1.5912101,0.273234 -0.6597041,0.516713 -0.5166033,0.425028 -1.1403072,0.910774 H 8.5500534 C 8.3346521,11.99943 7.9695498,11.60476 7.3149457,10.999094 c -2.5149157,0 -1.8471115,0.0061 -2.5149157,0 -0.3780024,0.0082 -0.4665029,-0.06133 -0.6000037,0.09017 L 3.3000206,12.000037 H 3.1500197 C 2.9913187,11.991839 2.8446178,11.842776 2.7000169,11.696445 L 2.1000131,11.089261 c -0.9000056,0 -1.65961035,-0.149974 -1.65961035,-0.149974 C 0.44040275,10.939287 0,10.785669 0,9.8748937 V 3.4994647 C 0,2.5886892 0,2.5886892 0.90000563,2.5886892 l 4.17212607,0.00304 c -2.0721129,-2.12818295 -3e-4,2.995e-4 -2.0721129,-2.12818295 L 3.4641217,-3.85e-5 6.0000375,2.5886892 8.4000525,0.00815848"
     id="path4"
     inkscape:connector-curvature="0"
     style="fill:#828282;stroke-width:0.30179155" />
  <path
     d="m 0,7.4998125 v -0.5 h 1 v 0.5 q 0,0.5 0.5,0.5 H 7 v 0.5 q 0,0.5 0.5,0.5 H 8 v 0.5 q 0,0.5 0.5,0.5 H 9 V 11.999812 H 0 V 7.4998125 m 39,0 v -0.5 h 1 V 11.999812 H 30 v -1 h 0.5 q 0.5,0 0.5,-0.5 V 9.9998125 h 0.5 q 0.5,0 0.5,-0.5 v -0.5 h 0.5 q 0.5,0 0.5,-0.5 v -0.5 h 5.5 q 0.5,0 0.5,-0.5 m -24,1 v -0.5 h 9 v 0.5 q 0,0.5 0.5,0.5 H 26 v 0.5 q 0,0.5 0.5,0.5 H 27 V 11.999812 H 12 v -1 h 0.5 q 0.5,0 0.5,-0.5 V 9.9998125 h 0.5 q 0.5,0 0.5,-0.5 v -0.5 h 0.5 q 0.5,0 0.5,-0.5"
     id="path6"
     inkscape:connector-curvature="0"
     style="fill:none" />
  <path
     d="m 13,9.4998125 v -0.5 h 1 v 0.5 q 0,0.5 -0.5,0.5 H 13 v -0.5"
     id="path8"
     inkscape:connector-curvature="0"
     style="fill-opacity:0.01199999" />
  <path
     d="m 9.076,-20.034188 7.83,0.045 -7.906,-7.511 2.479,-1.922 8.521,9.422 9,-9.5 2,1.5 -7.686,8.01 13.686,-0.01 3,2 V 4.9998125 l -2,2.5 H 33 L 29,11.499812 25.004,7.5948125 14,7.4998125 10.522,11.554812 6.962,7.5058125 H 1.469 L 0,6.4998125 V -18.000188 l 2.536,-2.055999 z"
     id="path10"
     inkscape:connector-curvature="0"
     style="fill:none" />
</svg>
